<svg width="185" height="166" viewBox="0 0 185 166" fill="none" xmlns="http://www.w3.org/2000/svg">
<path d="M84.25 50.44C84.25 50.8733 84.0767 51.2633 83.73 51.61C83.47 51.87 83.1233 52 82.69 52H46.55C46.1167 52 45.9 52.2167 45.9 52.65V77.09C45.9 77.5233 46.1167 77.74 46.55 77.74H69.69C70.1233 77.74 70.47 77.9133 70.73 78.26C71.0767 78.52 71.25 78.8667 71.25 79.3V89.18C71.25 89.6133 71.0767 90.0033 70.73 90.35C70.47 90.61 70.1233 90.74 69.69 90.74H46.55C46.1167 90.74 45.9 90.9567 45.9 91.39V116.35C45.9 116.783 46.1167 117 46.55 117H82.69C83.1233 117 83.47 117.173 83.73 117.52C84.0767 117.78 84.25 118.127 84.25 118.56V128.44C84.25 128.873 84.0767 129.263 83.73 129.61C83.47 129.87 83.1233 130 82.69 130H32.38C31.9467 130 31.5567 129.87 31.21 129.61C30.95 129.263 30.82 128.873 30.82 128.44V40.56C30.82 40.1267 30.95 39.78 31.21 39.52C31.5567 39.1733 31.9467 39 32.38 39H82.69C83.1233 39 83.47 39.1733 83.73 39.52C84.0767 39.78 84.25 40.1267 84.25 40.56V50.44ZM124.12 131.04C118.487 131.04 113.504 129.913 109.17 127.66C104.837 125.32 101.457 122.07 99.0304 117.91C96.6904 113.75 95.5204 108.94 95.5204 103.48V65.26C95.5204 59.8 96.6904 55.0333 99.0304 50.96C101.457 46.8 104.837 43.5933 109.17 41.34C113.504 39.0867 118.487 37.96 124.12 37.96C129.754 37.96 134.737 39.0867 139.07 41.34C143.404 43.5067 146.74 46.6267 149.08 50.7C151.507 54.6867 152.72 59.3667 152.72 64.74V65.52C152.72 65.9533 152.547 66.3433 152.2 66.69C151.94 67.0367 151.594 67.21 151.16 67.21L139.07 67.73C138.03 67.73 137.51 67.21 137.51 66.17V64.61C137.51 60.5367 136.254 57.2433 133.74 54.73C131.314 52.2167 128.107 50.96 124.12 50.96C120.047 50.96 116.754 52.2167 114.24 54.73C111.814 57.2433 110.6 60.5367 110.6 64.61V104.52C110.6 108.593 111.814 111.887 114.24 114.4C116.754 116.827 120.047 118.04 124.12 118.04C128.107 118.04 131.314 116.827 133.74 114.4C136.254 111.887 137.51 108.593 137.51 104.52V102.83C137.51 101.877 138.03 101.4 139.07 101.4L151.16 101.92C151.594 101.92 151.94 102.093 152.2 102.44C152.547 102.7 152.72 103.047 152.72 103.48V104C152.72 109.373 151.507 114.14 149.08 118.3C146.74 122.373 143.404 125.537 139.07 127.79C134.737 129.957 129.754 131.04 124.12 131.04Z" fill="black"/>
<rect x="7.5" y="8" width="170" height="150" stroke="black" stroke-width="15" stroke-linejoin="round"/>
</svg>
